<svg xmlns="http://www.w3.org/2000/svg" width="20" height="20" fill="none" viewBox="0 0 20 20"><path fill="#969696" d="M3.33333 10.8333V9.16667C3.33333 8.94097 3.4158 8.74566 3.58073 8.58073C3.74566 8.4158 3.94097 8.33333 4.16667 8.33333H10.7031L8.24219 5.8724C8.07726 5.70747 7.99479 5.51215 7.99479 5.28646C7.99479 5.06076 8.07726 4.86545 8.24219 4.70052L9.42708 3.51562C9.58333 3.35938 9.77865 3.28125 10.013 3.28125C10.2474 3.28125 10.4427 3.35938 10.599 3.51562L15.3125 8.22917L16.4974 9.41406C16.6536 9.57031 16.7318 9.76562 16.7318 10C16.7318 10.2344 16.6536 10.4297 16.4974 10.5859L15.3125 11.7708L10.599 16.4844C10.4427 16.6406 10.2474 16.7188 10.013 16.7188C9.77865 16.7188 9.58333 16.6406 9.42708 16.4844L8.24219 15.2995C8.08594 15.1432 8.00781 14.9479 8.00781 14.7135C8.00781 14.4792 8.08594 14.2839 8.24219 14.1276L10.7031 11.6667H4.16667C3.94097 11.6667 3.74566 11.5842 3.58073 11.4193C3.4158 11.2543 3.33333 11.059 3.33333 10.8333ZM0 10C0 11.8142 0.447048 13.4874 1.34115 15.0195C2.23524 16.5516 3.44835 17.7648 4.98047 18.6589C6.51259 19.553 8.18576 20 10 20C11.8142 20 13.4874 19.553 15.0195 18.6589C16.5516 17.7648 17.7648 16.5516 18.6589 15.0195C19.553 13.4874 20 11.8142 20 10C20 8.18576 19.553 6.51259 18.6589 4.98047C17.7648 3.44835 16.5516 2.23524 15.0195 1.34115C13.4874 0.447049 11.8142 0 10 0C8.18576 0 6.51259 0.447049 4.98047 1.34115C3.44835 2.23524 2.23524 3.44835 1.34115 4.98047C0.447048 6.51259 0 8.18576 0 10Z"/></svg>